<svg width="108" height="20" viewBox="0 0 108 20" fill="none" xmlns="http://www.w3.org/2000/svg">
<path d="M0 19.459V5.39091H0.215603L3.01844 9.89162V19.459H0ZM0 2.53418V0.59375H2.50638L11.9929 15.8207V19.459H10.5376L0 2.53418ZM8.97447 8.46325V0.59375H11.9929V12.964H11.7773L8.97447 8.46325Z" fill="white"/>
<path d="M15.2528 15.3895V8.54411C15.2888 7.66373 15.693 6.8103 16.4656 5.98382C17.4178 5.03158 18.5677 4.54647 19.9152 4.5285V7.22354C19.2145 7.22354 18.6845 7.53796 18.3252 8.1668C18.1994 8.3824 18.1365 8.58004 18.1365 8.75971V10.3767H23.2571V8.78666C23.2571 8.03205 22.8438 7.53796 22.0174 7.30439C21.7838 7.23252 21.5502 7.19659 21.3167 7.19659V4.5285C22.5923 4.5285 23.7242 4.96869 24.7124 5.84907C25.5389 6.63961 25.9611 7.52898 25.9791 8.51715V13.1526H18.1365V15.3895C18.1365 15.8566 18.397 16.2429 18.9181 16.5484C19.2415 16.728 19.5918 16.8179 19.9691 16.8179V19.459C18.2982 19.459 16.9776 18.7852 16.0074 17.4377C15.5044 16.7011 15.2528 16.0183 15.2528 15.3895ZM21.3167 19.459V16.7909C22.3587 16.7909 23.0774 16.3507 23.4727 15.4703C23.5266 15.3446 23.5715 15.2278 23.6074 15.12L26.006 15.9824C25.6826 17.2042 24.955 18.1474 23.823 18.8122C23.0505 19.2434 22.215 19.459 21.3167 19.459Z" fill="white"/>
<path d="M29.1581 15.4973V4.5285H32.0688V15.1739C32.0688 15.7488 32.3562 16.189 32.9312 16.4945C33.2366 16.6562 33.578 16.737 33.9553 16.737V19.5938C32.2125 19.5938 30.856 18.911 29.8858 17.5455C29.4007 16.8448 29.1581 16.1621 29.1581 15.4973ZM35.1411 19.5938V16.737C36.0395 16.737 36.6324 16.3867 36.9198 15.6859C36.9917 15.5063 37.0276 15.3356 37.0276 15.1739V4.5285H39.9383V15.4973C39.9383 16.3417 39.561 17.1772 38.8064 18.0037C37.8182 19.0458 36.5964 19.5758 35.1411 19.5938Z" fill="white"/>
<path d="M62.9517 15.4973V4.5285H65.8624V15.1739C65.8624 15.7488 66.1498 16.189 66.7248 16.4945C67.0302 16.6562 67.3716 16.737 67.7489 16.737V19.5938C66.0061 19.5938 64.6496 18.911 63.6794 17.5455C63.1943 16.8448 62.9517 16.1621 62.9517 15.4973ZM68.9347 19.5938V16.737C69.833 16.737 70.426 16.3867 70.7134 15.6859C70.7853 15.5063 70.8212 15.3356 70.8212 15.1739V4.5285H73.7319V15.4973C73.7319 16.3417 73.3546 17.1772 72.5999 18.0037C71.6118 19.0458 70.39 19.5758 68.9347 19.5938Z" fill="white"/>
<path d="M76.3989 15.5242L79.067 15.0391C79.067 15.7398 79.4353 16.2699 80.1719 16.6292C80.4953 16.7909 80.8097 16.8718 81.1152 16.8718V19.5938C79.2107 19.5938 77.8362 18.92 76.9918 17.5725C76.5965 16.9257 76.3989 16.2429 76.3989 15.5242ZM76.5336 8.67886C76.5336 7.0259 77.2972 5.79517 78.8244 4.98666C79.561 4.60935 80.2977 4.4207 81.0343 4.4207V7.08879C80.1719 7.08879 79.597 7.43016 79.3095 8.1129C79.2376 8.31054 79.2017 8.49919 79.2017 8.67886C79.2017 9.21786 79.6688 9.69399 80.6031 10.1072C81.3937 10.4306 82.5975 10.781 84.2145 11.1583C85.4542 11.4098 86.3346 12.0477 86.8556 13.0718C87.1251 13.6287 87.2599 14.2396 87.2599 14.9044C87.2599 16.6831 86.5412 17.9947 85.1038 18.8391C84.2774 19.3422 83.3341 19.5938 82.274 19.5938V16.8987C82.9927 16.8987 83.5856 16.6562 84.0528 16.1711C84.3402 15.8297 84.484 15.4524 84.484 15.0391C84.484 14.4103 83.7833 13.8803 82.3819 13.4491C82.0944 13.3592 81.6452 13.2335 81.0343 13.0718C80.118 12.8562 79.4712 12.6765 79.0939 12.5328C77.7644 11.9398 76.9558 11.0685 76.6684 9.91857C76.5785 9.54127 76.5336 9.12803 76.5336 8.67886ZM82.2471 7.08879V4.4207C83.8282 4.4207 85.1038 5.00462 86.0741 6.17247C86.6849 6.92708 86.9904 7.71763 86.9904 8.54411L84.3223 9.00226C84.3223 8.08595 83.8282 7.48406 82.84 7.19659C82.6244 7.12472 82.4268 7.08879 82.2471 7.08879Z" fill="white"/>
<path d="M90.1964 2.45332C90.1964 1.78855 90.4928 1.31243 91.0857 1.02496C91.3193 0.917154 91.5529 0.863254 91.7864 0.863254C92.4692 0.863254 92.9543 1.15971 93.2418 1.75262C93.3496 1.98619 93.4035 2.21975 93.4035 2.45332C93.4035 3.10013 93.098 3.56727 92.4872 3.85474C92.2536 3.96254 92.02 4.01645 91.7864 4.01645C91.1396 4.01645 90.6635 3.72897 90.3581 3.15403C90.2503 2.93843 90.1964 2.70486 90.1964 2.45332ZM90.385 19.459V5.09446H93.2687V19.459H90.385Z" fill="white"/>
<path d="M96.7981 15.3895C96.7981 16.3238 97.1665 17.1952 97.9031 18.0037C98.8014 18.9739 99.9873 19.459 101.461 19.459V16.7101C100.526 16.7101 99.9423 16.3956 99.7088 15.7668C99.6549 15.641 99.6279 15.5153 99.6279 15.3895V8.62496C99.6279 8.13985 99.8884 7.76254 100.409 7.49304C100.715 7.33134 101.065 7.25049 101.461 7.25049V4.5285C99.6998 4.5285 98.3702 5.22921 97.4719 6.63063C97.0407 7.2954 96.8161 7.94221 96.7981 8.57106V15.3895ZM102.673 7.27744C103.536 7.27744 104.057 7.68169 104.236 8.4902C104.272 8.63394 104.29 8.77767 104.29 8.92141V9.67602L106.931 8.67886C106.931 7.34931 106.392 6.26231 105.314 5.41786C104.524 4.82496 103.644 4.5285 102.673 4.5285V7.27744ZM102.673 19.4859C103.949 19.5219 105.072 19.0458 106.042 18.0576C106.851 17.2311 107.255 16.3148 107.255 15.3086L104.614 14.3115V15.0391C104.524 16.1531 103.877 16.719 102.673 16.737V19.4859Z" fill="white"/>
<path fill-rule="evenodd" clip-rule="evenodd" d="M47.099 1.61312C46.8614 1.87577 46.7299 2.2173 46.7299 2.57145V2.70717V4.13573V14.7075C46.1329 14.3485 45.3908 14.1357 44.5871 14.1357C42.6156 14.1357 41.0156 15.4157 41.0156 16.9929C41.0156 18.5715 42.6156 19.85 44.5871 19.85C46.5585 19.85 48.1585 18.5715 48.1585 16.9929V3.99287L53.0156 3.50716V7H54.5156V3.35716L59.5871 2.85002V11.8499C58.99 11.4911 58.248 11.2786 57.4442 11.2786C55.4728 11.2786 53.8728 12.5572 53.8728 14.1357C53.8728 15.7143 55.4728 16.9929 57.4442 16.9929C59.4156 16.9929 61.0156 15.7143 61.0156 14.1357V2.70716V1.42859V1.42856V1.2786H61.0077C60.9921 1.13059 60.9534 0.985614 60.8928 0.849017C60.8118 0.666533 60.6934 0.503052 60.5454 0.369121C60.3973 0.235189 60.2228 0.13378 60.0331 0.0714359C59.8435 0.00909144 59.6428 -0.0128043 59.4442 0.00716095L54.5156 0.5L53.0156 0.640625V0.650018L48.0156 1.15002C47.6632 1.18543 47.3366 1.35047 47.099 1.61312ZM53.0156 0.650018V3.50716L54.5156 3.35716V0.5L53.0156 0.650018Z" fill="white"/>
</svg>
